<svg xmlns="http://www.w3.org/2000/svg" xmlns:xlink="http://www.w3.org/1999/xlink" width="28" height="28" xmlns:v="https://vecta.io/nano"><defs><path d="M14 .25C21.594.25 27.75 6.406 27.75 14S21.594 27.75 14 27.75.25 21.594.25 14 6.406.25 14 .25zm0 2.5C7.787 2.75 2.75 7.787 2.75 14S7.787 25.25 14 25.25 25.25 20.213 25.25 14 20.213 2.75 14 2.75zm0 2.5a8.75 8.75 0 1 1 0 17.5 8.75 8.75 0 1 1 0-17.5zm0 2.5a6.25 6.25 0 1 0 0 12.5 6.25 6.25 0 1 0 0-12.5zm0 2.5a3.75 3.75 0 1 1 0 7.5 3.75 3.75 0 1 1 0-7.5zm0 2.5a1.25 1.25 0 1 0 0 2.5 1.25 1.25 0 1 0 0-2.5z" id="A"/></defs><use fill="#585858" xlink:href="#A" fill-rule="evenodd"/></svg>