<svg xmlns="http://www.w3.org/2000/svg" xmlns:xlink="http://www.w3.org/1999/xlink" width="26" height="28" xmlns:v="https://vecta.io/nano"><defs><path d="M18 .25a1.25 1.25 0 0 1 1.25 1.25h0v1.25h2.5A3.75 3.75 0 0 1 25.5 6.5V24a3.75 3.75 0 0 1-3.75 3.75H4.25A3.75 3.75 0 0 1 .5 24V6.5a3.75 3.75 0 0 1 3.75-3.75h2.5V1.5A1.25 1.25 0 0 1 7.872.256L8 .25A1.25 1.25 0 0 1 9.25 1.5h0v1.25h7.5V1.5A1.25 1.25 0 0 1 17.872.256zm5 12.5H3V24a1.25 1.25 0 0 0 1.25 1.25h17.5A1.25 1.25 0 0 0 23 24V12.75zM6.75 5.25h-2.5A1.25 1.25 0 0 0 3 6.5v3.75h20V6.5a1.25 1.25 0 0 0-1.25-1.25h-2.5V6.5a1.25 1.25 0 0 1-1.122 1.244L18 7.75a1.25 1.25 0 0 1-1.25-1.25h0V5.25h-7.5V6.5a1.25 1.25 0 0 1-1.122 1.244L8 7.75A1.25 1.25 0 0 1 6.75 6.5h0V5.25z" id="A"/></defs><use fill="#585858" fill-rule="nonzero" xlink:href="#A"/></svg>