<svg xmlns="http://www.w3.org/2000/svg" xmlns:xlink="http://www.w3.org/1999/xlink" width="28" height="30" xmlns:v="https://vecta.io/nano"><defs><path d="M15.669.392l10 5a3.75 3.75 0 0 1 2.081 3.357v11.913a3.75 3.75 0 0 1-2.078 3.355l-10 5a3.75 3.75 0 0 1-3.356 0L2.313 24.015C1.039 23.373.24 22.066.25 20.649V8.748a3.75 3.75 0 0 1 2.079-3.355l4.773-2.388c.059-.036.121-.066.185-.092L12.331.392a3.75 3.75 0 0 1 3.338 0zM2.75 9.221v11.436a1.25 1.25 0 0 0 .684 1.123l9.316 4.657V14.221l-10-5zm22.5 0l-10 5v12.211l9.306-4.653a1.25 1.25 0 0 0 .694-1.118V9.221zM7.756 5.474L4.301 7.201 14 12.051l3.456-1.728-9.7-4.849zm5.691-2.845l-2.896 1.447 9.7 4.85 3.447-1.724-9.143-4.572a1.25 1.25 0 0 0-1.109-.001z" id="A"/></defs><use fill="#585858" fill-rule="nonzero" xlink:href="#A"/></svg>