<svg xmlns="http://www.w3.org/2000/svg" xmlns:xlink="http://www.w3.org/1999/xlink" width="24" height="28" xmlns:v="https://vecta.io/nano"><defs><path d="M22 .25a1.25 1.25 0 0 1 1.25 1.25v25A1.25 1.25 0 0 1 22 27.75H5.125C2.709 27.75.75 25.791.75 23.375V4.625C.75 2.209 2.709.25 5.125.25H22zM20.75 21.5H5.125c-1.036 0-1.875.839-1.875 1.875h0c0 1.036.839 1.875 1.875 1.875H20.75V21.5zm0-18.75H5.125c-1.036 0-1.875.839-1.875 1.875v14.796A4.36 4.36 0 0 1 5.125 19h0H20.75V2.75z" id="A"/></defs><use fill="#ff5a36" fill-rule="nonzero" xlink:href="#A"/></svg>