<svg xmlns="http://www.w3.org/2000/svg" xmlns:xlink="http://www.w3.org/1999/xlink" width="26" height="30" xmlns:v="https://vecta.io/nano"><defs><path d="M13 0c6.904 0 12.5 5.596 12.5 12.5 0 4.215-2.253 8.345-5.968 12.266-1.274 1.344-2.635 2.569-3.996 3.653a35.52 35.52 0 0 1-1.321 1.005l-.522.366a1.25 1.25 0 0 1-1.387 0 18.46 18.46 0 0 1-.522-.366 35.52 35.52 0 0 1-1.321-1.005c-1.361-1.084-2.722-2.309-3.996-3.653C2.753 20.845.5 16.715.5 12.5.5 5.596 6.096 0 13 0zm0 2.5c-5.523 0-10 4.477-10 10 0 3.442 1.966 7.046 5.282 10.547 1.187 1.253 2.463 2.401 3.738 3.417a34.21 34.21 0 0 0 .979.752 34.21 34.21 0 0 0 .979-.752c1.275-1.016 2.551-2.164 3.738-3.417C21.034 19.546 23 15.942 23 12.5c0-5.523-4.477-10-10-10zm0 5a5 5 0 0 1 0 10 5 5 0 0 1 0-10zm0 2.5a2.5 2.5 0 0 0 0 5 2.5 2.5 0 0 0 0-5z" id="A"/></defs><use fill="#ff5a36" fill-rule="nonzero" xlink:href="#A"/></svg>