<svg xmlns="http://www.w3.org/2000/svg" xmlns:xlink="http://www.w3.org/1999/xlink" width="28" height="28" xmlns:v="https://vecta.io/nano"><defs><path d="M14 .25C21.594.25 27.75 6.406 27.75 14S21.594 27.75 14 27.75.25 21.594.25 14 6.406.25 14 .25zM7.816 15.251H2.819c.517 4.671 3.893 8.48 8.34 9.637-1.902-2.859-3.056-6.167-3.342-9.637zm17.365 0h-4.994c-.28 3.454-1.436 6.769-3.344 9.637a11.26 11.26 0 0 0 8.338-9.637zm-7.5 0l-7.359-.001c.314 3.391 1.591 6.622 3.678 9.311a17.86 17.86 0 0 0 3.681-9.311zM11.157 3.112l-.237.064C6.591 4.406 3.326 8.163 2.819 12.75h4.994c.28-3.454 1.436-6.77 3.345-9.638zM14 3.438a17.86 17.86 0 0 0-3.682 9.312l7.36.001C17.364 9.359 16.087 6.128 14 3.438zm2.842-.326l.057.085c1.868 2.839 3.002 6.117 3.285 9.553h4.997c-.516-4.671-3.893-8.481-8.34-9.638z" id="A"/></defs><use fill="#ff5a36" fill-rule="nonzero" xlink:href="#A"/></svg>