<svg width="36" height="36" viewBox="0 0 36 36" fill="none" xmlns="http://www.w3.org/2000/svg">
<circle cx="18" cy="18" r="18" fill="white"/>
<path fill-rule="evenodd" clip-rule="evenodd" d="M22.163 10.1213C22.5535 9.7308 22.5535 9.09763 22.163 8.70711C21.7725 8.31658 21.1393 8.31658 20.7488 8.70711L11.7138 17.7421C11.7115 17.7443 11.7093 17.7465 11.7071 17.7487C11.463 17.9928 11.3715 18.3317 11.4325 18.6469C11.4483 18.7281 11.4741 18.8077 11.5101 18.8837C11.5579 18.9848 11.6236 19.0794 11.7071 19.163C11.7087 19.1646 11.7104 19.1662 11.712 19.1678L20.7488 28.2046C21.1393 28.5951 21.7724 28.5951 22.163 28.2046C22.5535 27.814 22.5535 27.1809 22.163 26.7903L13.8285 18.4558L22.163 10.1213Z" fill="black"/>
</svg>
