<?xml version="1.0" encoding="UTF-8"?>
<svg width="502px" height="176px" viewBox="0 0 502 176" version="1.1" xmlns="http://www.w3.org/2000/svg" xmlns:xlink="http://www.w3.org/1999/xlink">
    <title>Group</title>
    <g id="Page-1" stroke="none" stroke-width="1" fill="none" fill-rule="evenodd">
        <g id="Group" transform="translate(0.500000, 0.000000)" fill="#FF5C39" fill-rule="nonzero">
            <path d="M38.390625,140.538086 C48.3027344,140.538086 56.371582,137.510742 62.597168,131.456055 C68.8227539,125.401367 71.9355469,117.24707 71.9355469,106.993164 L71.9355469,106.993164 L71.9355469,32.359375 L54.2109375,32.359375 L54.2109375,106.993164 C54.2109375,112.852539 52.7338867,117.540039 49.7797852,121.055664 C46.8256836,124.571289 43.0292969,126.329102 38.390625,126.329102 C33.2148438,126.329102 29.1743164,124.876465 26.269043,121.971191 C23.3637695,119.065918 21.9111328,114.585938 21.9111328,108.53125 L21.9111328,108.53125 L4.69921875,108.53125 L4.55273438,108.970703 C4.30859375,119.273438 7.26269531,127.110352 13.4150391,132.481445 C19.5673828,137.852539 27.8925781,140.538086 38.390625,140.538086 Z M273.27832,139 L273.27832,124.791016 L224.05957,124.791016 L224.05957,91.0263672 L265.807617,91.0263672 L265.807617,76.7441406 L224.05957,76.7441406 L224.05957,46.6416016 L272.765625,46.6416016 L272.765625,32.359375 L206.261719,32.359375 L206.261719,139 L273.27832,139 Z M321.764648,139 L343.151367,63.1210938 L343.59082,63.1210938 L364.904297,139 L381.09082,139 L406.432617,32.359375 L387.682617,32.359375 L372.008789,109.263672 L371.569336,109.263672 L351.134766,32.359375 L335.460938,32.359375 L315.172852,109.19043 L314.733398,109.19043 L298.913086,32.359375 L280.236328,32.359375 L305.504883,139 L321.764648,139 Z M456.017578,140.538086 C467.296875,140.538086 476.40332,137.901367 483.336914,132.62793 C490.270508,127.354492 493.737305,120.298828 493.737305,111.460938 C493.737305,103.0625 490.807617,96.1655273 484.948242,90.7700195 C479.088867,85.3745117 470.568359,81.1142578 459.386719,77.9892578 C451.134766,75.5966797 445.226562,73.0698242 441.662109,70.4086914 C438.097656,67.7475586 436.31543,64.3662109 436.31543,60.2646484 C436.31543,55.7724609 437.938965,52.1103516 441.186035,49.2783203 C444.433105,46.4462891 449.05957,45.0302734 455.06543,45.0302734 C461.266602,45.0302734 466.234863,46.6904297 469.970215,50.0107422 C473.705566,53.3310547 475.573242,57.7988281 475.573242,63.4140625 L475.573242,63.4140625 L492.711914,63.4140625 L492.858398,62.9746094 C493.102539,53.8925781 489.77002,46.2631836 482.86084,40.0864258 C475.95166,33.909668 466.735352,30.8212891 455.211914,30.8212891 C444.469727,30.8212891 435.680664,33.6044922 428.844727,39.1708984 C422.008789,44.7373047 418.59082,51.8173828 418.59082,60.4111328 C418.59082,68.7119141 421.703613,75.4379883 427.929199,80.5893555 C434.154785,85.7407227 443.004883,89.9033203 454.479492,93.0771484 C462.487305,95.3232422 468.065918,97.8623047 471.215332,100.694336 C474.364746,103.526367 475.939453,107.164062 475.939453,111.607422 C475.939453,116.148438 474.193848,119.749512 470.702637,122.410645 C467.211426,125.071777 462.316406,126.402344 456.017578,126.402344 C449.669922,126.402344 444.286621,124.778809 439.867676,121.531738 C435.44873,118.284668 433.239258,113.462891 433.239258,107.066406 L433.239258,107.066406 L416.100586,107.066406 L415.954102,107.505859 C415.709961,118.003906 419.616211,126.133789 427.672852,131.895508 C435.729492,137.657227 445.177734,140.538086 456.017578,140.538086 Z" id="JEWS"></path>
            <path d="M85.0292076,102.754898 C85.0584153,60.9864591 85.0194718,63.9595765 85.593888,60.0597731 C86.4701163,54.0459674 88.8456684,48.2348741 92.2921661,43.7462389 C93.2560172,42.4816988 95.9917966,39.7692117 97.1893086,38.8811377 C99.837465,36.931236 103.712341,35.0682111 107.149103,34.0932602 C110.322997,33.1858802 112.727756,32.9155968 116.592897,33.0217796 C119.640223,33.0990034 121.509511,33.3885928 124.235554,34.209096 C126.513748,34.8848045 129.600018,36.2555275 131.790589,37.5490267 C135.645993,39.8464355 139.111963,43.6207503 141.506986,48.1576503 C143.804651,52.5111436 145.109258,57.0190848 145.712882,62.7239953 C145.888128,64.3843076 146.014694,75.0411962 146.034166,89.0187093 C146.043901,95.3221045 146.063373,96.5190738 146.170468,96.4032381 C146.248355,96.3260143 153.30686,84.2308319 161.86469,69.5196922 C170.422519,54.8182055 177.695213,42.327251 178.035969,41.7673784 C179.953935,38.5529365 182.689714,36.1879566 186.175156,34.7303568 C188.23916,33.8615887 190.419995,33.3692868 192.191923,33.3692868 L193,33.3692868 L192.941585,70.5139491 C192.902641,90.9396522 192.873434,115.149323 192.873434,124.329306 L192.873434,141 L184.597945,141 L176.322456,141 L176.31272,122.640034 C176.302984,112.533366 176.26404,98.304875 176.234833,91.0265288 L176.176418,77.7729891 L175.193095,79.4429543 C172.885694,83.3524108 167.793834,91.972521 162.643559,100.698814 C147.689263,126.02823 143.726765,132.717744 143.210764,133.470677 C141.984044,135.237172 140.582079,136.607895 138.69332,137.862782 C136.45407,139.358994 133.620932,140.372556 131.148021,140.565616 C130.748851,140.594575 130.18417,140.64284 129.911566,140.671799 L129.395565,140.720064 L129.366357,103.141017 C129.346885,68.0331336 129.327414,65.4847472 129.17164,64.4518784 C128.743262,61.6332086 128.22726,59.8184486 127.360768,58.0905655 C126.65005,56.6812305 125.98801,55.7545446 124.917065,54.7023698 C122.28838,52.1153715 119.270261,51.0921558 114.743081,51.2562565 C111.734698,51.3624393 109.845939,51.903006 107.869557,53.2061581 C106.04895,54.4127805 104.617777,56.0537869 103.605247,58.1098715 C102.680339,60.0018553 102.213017,61.6428617 101.774903,64.6449379 C101.619129,65.6681538 101.609393,68.6991891 101.580186,103.382342 L101.550978,141 L93.275489,141 L85,141 L85.0292076,102.754898 Z" id="Path-Copy" transform="translate(139.000000, 87.000000) scale(-1, 1) rotate(-180.000000) translate(-139.000000, -87.000000) "></path>
        </g>
    </g>
</svg>